<?xml version="1.0" encoding="UTF-8" standalone="no"?>
<!-- Created with Inkscape (http://www.inkscape.org/) -->

<svg
   width="210mm"
   height="120mm"
   viewBox="0 0 210 120"
   version="1.1"
   id="svg5"
   sodipodi:docname="non_colinear_motion.svg"
   inkscape:version="1.1.2 (0a00cf5339, 2022-02-04)"
   xmlns:inkscape="http://www.inkscape.org/namespaces/inkscape"
   xmlns:sodipodi="http://sodipodi.sourceforge.net/DTD/sodipodi-0.dtd"
   xmlns:xlink="http://www.w3.org/1999/xlink"
   xmlns="http://www.w3.org/2000/svg"
   xmlns:svg="http://www.w3.org/2000/svg">
  <sodipodi:namedview
     id="namedview7"
     pagecolor="#ffffff"
     bordercolor="#666666"
     borderopacity="1.0"
     inkscape:pageshadow="2"
     inkscape:pageopacity="0.0"
     inkscape:pagecheckerboard="0"
     inkscape:document-units="mm"
     showgrid="false"
     inkscape:zoom="2.3090909"
     inkscape:cx="318.30709"
     inkscape:cy="247.93307"
     inkscape:window-width="3840"
     inkscape:window-height="2089"
     inkscape:window-x="1920"
     inkscape:window-y="0"
     inkscape:window-maximized="1"
     inkscape:current-layer="layer1"
     width="200mm" />
  <defs
     id="defs2">
    <marker
       style="overflow:visible"
       id="Arrow2Lend"
       refX="0"
       refY="0"
       orient="auto"
       inkscape:stockid="Arrow2Lend"
       inkscape:isstock="true">
      <path
         transform="matrix(-1.1,0,0,-1.1,-1.1,0)"
         d="M 8.7185878,4.0337352 -2.2072895,0.01601326 8.7185884,-4.0017078 c -1.7454984,2.3720609 -1.7354408,5.6174519 -6e-7,8.035443 z"
         style="fill:context-stroke;fill-rule:evenodd;stroke:context-stroke;stroke-width:0.625;stroke-linejoin:round"
         id="path10533" />
    </marker>
    <marker
       style="overflow:visible"
       id="Arrow1Lend"
       refX="0"
       refY="0"
       orient="auto"
       inkscape:stockid="Arrow1Lend"
       inkscape:isstock="true">
      <path
         transform="matrix(-0.8,0,0,-0.8,-10,0)"
         style="fill:context-stroke;fill-rule:evenodd;stroke:context-stroke;stroke-width:1pt"
         d="M 0,0 5,-5 -12.5,0 5,5 Z"
         id="path10515" />
    </marker>
    <marker
       style="overflow:visible"
       id="Arrow2Lstart"
       refX="0"
       refY="0"
       orient="auto"
       inkscape:stockid="Arrow2Lstart"
       inkscape:isstock="true">
      <path
         transform="matrix(1.1,0,0,1.1,1.1,0)"
         d="M 8.7185878,4.0337352 -2.2072895,0.01601326 8.7185884,-4.0017078 c -1.7454984,2.3720609 -1.7354408,5.6174519 -6e-7,8.035443 z"
         style="fill:context-stroke;fill-rule:evenodd;stroke:context-stroke;stroke-width:0.625;stroke-linejoin:round"
         id="path10530" />
    </marker>
    <g
       id="g8011">
      <symbol
         overflow="visible"
         id="symbol5524">
        <path
           style="stroke:none"
           d=""
           id="path4755" />
      </symbol>
      <symbol
         overflow="visible"
         id="symbol2950">
        <path
           style="stroke:none"
           d="M 6.75,-1.609375 H 6.5 c -0.046875,0.25 -0.09375,0.484375 -0.1875,0.71875 -0.046875,0.15625 -0.078125,0.25 -0.65625,0.25 H 4.859375 C 5,-1.203125 5.296875,-1.6875 5.75,-2.34375 c 0.46875,-0.703125 0.875,-1.390625 0.875,-2.1875 0,-1.375 -1.34375,-2.5 -3.03125,-2.5 -1.703125,0 -3.03125,1.140625 -3.03125,2.5 0,0.796875 0.40625,1.484375 0.875,2.1875 0.4375,0.65625 0.75,1.140625 0.890625,1.703125 H 1.53125 C 0.953125,-0.640625 0.921875,-0.734375 0.875,-0.875 0.78125,-1.109375 0.734375,-1.359375 0.6875,-1.609375 h -0.25 L 0.765625,0 h 1.59375 c 0.21875,0 0.25,0 0.25,-0.203125 0,-0.703125 -0.3125,-1.578125 -0.53125,-2.21875 -0.21875,-0.578125 -0.5,-1.359375 -0.5,-2.109375 0,-1.59375 1.109375,-2.28125 2.015625,-2.28125 0.953125,0 2.015625,0.71875 2.015625,2.28125 0,0.75 -0.28125,1.5 -0.5625,2.3125 -0.15625,0.421875 -0.46875,1.328125 -0.46875,2.015625 C 4.578125,0 4.609375,0 4.828125,0 h 1.59375 z m 0,0"
           id="path4139" />
      </symbol>
    </g>
    <g
       id="g2892">
      <symbol
         overflow="visible"
         id="symbol904">
        <path
           style="stroke:none"
           d=""
           id="path3462" />
      </symbol>
      <symbol
         overflow="visible"
         id="symbol4982">
        <path
           style="stroke:none"
           d="m 5.359375,-5.9375 c -0.140625,0.140625 -0.46875,0.421875 -0.46875,0.59375 0,0.09375 0.09375,0.203125 0.1875,0.203125 0.09375,0 0.140625,-0.078125 0.203125,-0.140625 C 5.390625,-5.421875 5.625,-5.703125 6.0625,-5.921875 6.125,-5.96875 6.234375,-6.015625 6.234375,-6.125 6.234375,-6.234375 6.15625,-6.28125 6.09375,-6.328125 5.875,-6.484375 5.765625,-6.65625 5.6875,-6.890625 5.65625,-6.984375 5.625,-7.125 5.484375,-7.125 c -0.140625,0 -0.203125,0.140625 -0.203125,0.21875 0,0.046875 0.078125,0.359375 0.234375,0.578125 H 2.15625 c -0.15625,0 -0.34375,0 -0.34375,0.203125 0,0.1875 0.1875,0.1875 0.34375,0.1875 z m 0,0"
           id="path9038" />
      </symbol>
      <symbol
         overflow="visible"
         id="symbol350">
        <path
           style="stroke:none"
           d="m 4.671875,-3.703125 c 0,-0.546875 -0.265625,-0.703125 -0.4375,-0.703125 -0.25,0 -0.5,0.265625 -0.5,0.484375 0,0.125 0.046875,0.1875 0.15625,0.296875 0.21875,0.203125 0.34375,0.453125 0.34375,0.8125 0,0.421875 -0.609375,2.703125 -1.765625,2.703125 -0.515625,0 -0.75,-0.34375 -0.75,-0.875 0,-0.546875 0.28125,-1.28125 0.578125,-2.109375 0.078125,-0.171875 0.125,-0.3125 0.125,-0.5 0,-0.4375 -0.3125,-0.8125 -0.8125,-0.8125 -0.9375,0 -1.3125,1.453125 -1.3125,1.53125 0,0.109375 0.09375,0.109375 0.109375,0.109375 0.109375,0 0.109375,-0.03125 0.15625,-0.1875 0.296875,-1 0.71875,-1.234375 1.015625,-1.234375 0.078125,0 0.25,0 0.25,0.3125 0,0.25 -0.109375,0.53125 -0.171875,0.703125 -0.4375,1.15625 -0.5625,1.609375 -0.5625,2.046875 0,1.078125 0.875,1.234375 1.328125,1.234375 1.671875,0 2.25,-3.296875 2.25,-3.8125 z m 0,0"
           id="path3644" />
      </symbol>
      <symbol
         overflow="visible"
         id="symbol5736">
        <path
           style="stroke:none"
           d=""
           id="path8955" />
      </symbol>
      <symbol
         overflow="visible"
         id="symbol6039">
        <path
           style="stroke:none"
           d="m 5.515625,-1.609375 c 0.046875,-0.09375 0.046875,-0.125 0.046875,-0.125 0,-0.046875 -0.03125,-0.09375 -0.125,-0.09375 -0.015625,0 -0.046875,0 -0.078125,0.015625 0,0.015625 -0.015625,0.03125 -0.09375,0.203125 C 4.8125,-0.59375 4.453125,-0.25 3.3125,-0.25 H 2.125 c -0.203125,0 -0.21875,-0.015625 -0.21875,-0.078125 0,0 0,-0.03125 0.03125,-0.140625 L 2.40625,-2.328125 H 3.1875 c 0.546875,0 0.625,0.078125 0.625,0.3125 0,0.078125 -0.015625,0.203125 -0.046875,0.3125 C 3.75,-1.640625 3.75,-1.625 3.75,-1.609375 c 0,0 0,0.09375 0.125,0.09375 0.09375,0 0.09375,-0.03125 0.125,-0.15625 l 0.390625,-1.53125 c 0.015625,-0.078125 0.015625,-0.09375 0.015625,-0.09375 0,-0.078125 -0.0625,-0.109375 -0.125,-0.109375 -0.09375,0 -0.09375,0.046875 -0.140625,0.1875 C 4,-2.671875 3.796875,-2.578125 3.203125,-2.578125 H 2.46875 L 2.890625,-4.25 c 0.046875,-0.203125 0.0625,-0.234375 0.34375,-0.234375 H 4.375 c 0.921875,0 1.140625,0.1875 1.140625,0.8125 0,0.1875 -0.03125,0.390625 -0.03125,0.421875 0,0.0625 0.03125,0.125 0.125,0.125 0.109375,0 0.109375,-0.0625 0.125,-0.1875 l 0.125,-1.203125 C 5.875,-4.734375 5.828125,-4.734375 5.65625,-4.734375 H 1.828125 c -0.140625,0 -0.21875,0 -0.21875,0.15625 0,0.09375 0.0625,0.09375 0.21875,0.09375 0.109375,0 0.140625,0 0.265625,0.015625 C 2.234375,-4.453125 2.25,-4.4375 2.25,-4.375 c 0,0.046875 -0.015625,0.125 -0.03125,0.15625 L 1.3125,-0.578125 C 1.234375,-0.296875 1.234375,-0.25 0.6875,-0.25 c -0.125,0 -0.203125,0 -0.203125,0.15625 C 0.484375,0 0.5625,0 0.6875,0 H 4.625 c 0.171875,0 0.1875,0 0.234375,-0.125 z m 0,0"
           id="path6095" />
      </symbol>
    </g>
    <g
       id="g4195">
      <symbol
         overflow="visible"
         id="symbol9659">
        <path
           style="stroke:none"
           d=""
           id="path6511" />
      </symbol>
      <symbol
         overflow="visible"
         id="symbol1158">
        <path
           style="stroke:none"
           d="m 5.359375,-5.9375 c -0.140625,0.140625 -0.46875,0.421875 -0.46875,0.59375 0,0.09375 0.09375,0.203125 0.1875,0.203125 0.09375,0 0.140625,-0.078125 0.203125,-0.140625 C 5.390625,-5.421875 5.625,-5.703125 6.0625,-5.921875 6.125,-5.96875 6.234375,-6.015625 6.234375,-6.125 6.234375,-6.234375 6.15625,-6.28125 6.09375,-6.328125 5.875,-6.484375 5.765625,-6.65625 5.6875,-6.890625 5.65625,-6.984375 5.625,-7.125 5.484375,-7.125 c -0.140625,0 -0.203125,0.140625 -0.203125,0.21875 0,0.046875 0.078125,0.359375 0.234375,0.578125 H 2.15625 c -0.15625,0 -0.34375,0 -0.34375,0.203125 0,0.1875 0.1875,0.1875 0.34375,0.1875 z m 0,0"
           id="path5598" />
      </symbol>
      <symbol
         overflow="visible"
         id="symbol3291">
        <path
           style="stroke:none"
           d="m 4.671875,-3.703125 c 0,-0.546875 -0.265625,-0.703125 -0.4375,-0.703125 -0.25,0 -0.5,0.265625 -0.5,0.484375 0,0.125 0.046875,0.1875 0.15625,0.296875 0.21875,0.203125 0.34375,0.453125 0.34375,0.8125 0,0.421875 -0.609375,2.703125 -1.765625,2.703125 -0.515625,0 -0.75,-0.34375 -0.75,-0.875 0,-0.546875 0.28125,-1.28125 0.578125,-2.109375 0.078125,-0.171875 0.125,-0.3125 0.125,-0.5 0,-0.4375 -0.3125,-0.8125 -0.8125,-0.8125 -0.9375,0 -1.3125,1.453125 -1.3125,1.53125 0,0.109375 0.09375,0.109375 0.109375,0.109375 0.109375,0 0.109375,-0.03125 0.15625,-0.1875 0.296875,-1 0.71875,-1.234375 1.015625,-1.234375 0.078125,0 0.25,0 0.25,0.3125 0,0.25 -0.109375,0.53125 -0.171875,0.703125 -0.4375,1.15625 -0.5625,1.609375 -0.5625,2.046875 0,1.078125 0.875,1.234375 1.328125,1.234375 1.671875,0 2.25,-3.296875 2.25,-3.8125 z m 0,0"
           id="path4460" />
      </symbol>
      <symbol
         overflow="visible"
         id="symbol799">
        <path
           style="stroke:none"
           d=""
           id="path9019" />
      </symbol>
      <symbol
         overflow="visible"
         id="symbol9431">
        <path
           style="stroke:none"
           d="m 2.015625,-3.296875 c 0.0625,-0.109375 0.0625,-0.171875 0.0625,-0.21875 0,-0.21875 -0.1875,-0.375 -0.40625,-0.375 -0.265625,0 -0.34375,0.21875 -0.375,0.328125 L 0.375,-0.546875 c -0.015625,0.015625 -0.046875,0.09375 -0.046875,0.109375 0,0.078125 0.21875,0.15625 0.28125,0.15625 0.046875,0 0.046875,-0.015625 0.09375,-0.125 z m 0,0"
           id="path449" />
      </symbol>
      <symbol
         overflow="visible"
         id="symbol3661">
        <path
           style="stroke:none"
           d=""
           id="path7285" />
      </symbol>
      <symbol
         overflow="visible"
         id="symbol4243">
        <path
           style="stroke:none"
           d="m 5.515625,-1.609375 c 0.046875,-0.09375 0.046875,-0.125 0.046875,-0.125 0,-0.046875 -0.03125,-0.09375 -0.125,-0.09375 -0.015625,0 -0.046875,0 -0.078125,0.015625 0,0.015625 -0.015625,0.03125 -0.09375,0.203125 C 4.8125,-0.59375 4.453125,-0.25 3.3125,-0.25 H 2.125 c -0.203125,0 -0.21875,-0.015625 -0.21875,-0.078125 0,0 0,-0.03125 0.03125,-0.140625 L 2.40625,-2.328125 H 3.1875 c 0.546875,0 0.625,0.078125 0.625,0.3125 0,0.078125 -0.015625,0.203125 -0.046875,0.3125 C 3.75,-1.640625 3.75,-1.625 3.75,-1.609375 c 0,0 0,0.09375 0.125,0.09375 0.09375,0 0.09375,-0.03125 0.125,-0.15625 l 0.390625,-1.53125 c 0.015625,-0.078125 0.015625,-0.09375 0.015625,-0.09375 0,-0.078125 -0.0625,-0.109375 -0.125,-0.109375 -0.09375,0 -0.09375,0.046875 -0.140625,0.1875 C 4,-2.671875 3.796875,-2.578125 3.203125,-2.578125 H 2.46875 L 2.890625,-4.25 c 0.046875,-0.203125 0.0625,-0.234375 0.34375,-0.234375 H 4.375 c 0.921875,0 1.140625,0.1875 1.140625,0.8125 0,0.1875 -0.03125,0.390625 -0.03125,0.421875 0,0.0625 0.03125,0.125 0.125,0.125 0.109375,0 0.109375,-0.0625 0.125,-0.1875 l 0.125,-1.203125 C 5.875,-4.734375 5.828125,-4.734375 5.65625,-4.734375 H 1.828125 c -0.140625,0 -0.21875,0 -0.21875,0.15625 0,0.09375 0.0625,0.09375 0.21875,0.09375 0.109375,0 0.140625,0 0.265625,0.015625 C 2.234375,-4.453125 2.25,-4.4375 2.25,-4.375 c 0,0.046875 -0.015625,0.125 -0.03125,0.15625 L 1.3125,-0.578125 C 1.234375,-0.296875 1.234375,-0.25 0.6875,-0.25 c -0.125,0 -0.203125,0 -0.203125,0.15625 C 0.484375,0 0.5625,0 0.6875,0 H 4.625 c 0.171875,0 0.1875,0 0.234375,-0.125 z m 0,0"
           id="path6085" />
      </symbol>
    </g>
    <g
       id="g3066">
      <symbol
         overflow="visible"
         id="symbol289">
        <path
           style="stroke:none"
           d=""
           id="path1960" />
      </symbol>
      <symbol
         overflow="visible"
         id="symbol5701">
        <path
           style="stroke:none"
           d="m 5.09375,-3.546875 c 0.203125,-0.84375 0.203125,-1.375 0.203125,-1.5 0,-0.359375 -0.0625,-1.984375 -1.109375,-1.984375 -0.828125,0 -1.46875,1.046875 -1.46875,1.828125 0,0.96875 0.9375,1.4375 1.625,1.671875 -0.21875,0.90625 -0.375,1.484375 -0.703125,2.15625 -0.125,0.28125 -0.609375,1.265625 -1.203125,1.265625 -0.671875,0 -0.734375,-0.515625 -0.734375,-0.796875 0,-0.265625 0.078125,-0.578125 0.125,-0.8125 0.0625,-0.25 0.125,-0.46875 0.203125,-0.765625 l 0.109375,-0.46875 C 2.1875,-3.125 2.25,-3.34375 2.25,-3.484375 2.25,-4.09375 1.796875,-4.40625 1.328125,-4.40625 0.875,-4.40625 0.6875,-4.015625 0.59375,-3.84375 0.421875,-3.5 0.296875,-2.90625 0.296875,-2.875 c 0,0.109375 0.09375,0.109375 0.109375,0.109375 0.109375,0 0.109375,-0.015625 0.171875,-0.234375 0.171875,-0.703125 0.375,-1.1875 0.734375,-1.1875 0.15625,0 0.296875,0.078125 0.296875,0.453125 0,0.21875 -0.140625,0.765625 -0.21875,1.125 C 1.34375,-2.4375 1.25,-2.09375 1.203125,-1.875 1.125,-1.578125 1.0625,-1.328125 1.0625,-1.03125 c 0,0.9375 0.703125,1.140625 1.34375,1.140625 1.0625,0 2.125,-1.578125 2.640625,-3.453125 C 5.140625,-3.3125 5.4375,-3.25 5.5,-3.25 c 0.03125,0 0.09375,-0.03125 0.09375,-0.125 0,-0.078125 -0.078125,-0.078125 -0.203125,-0.109375 z M 4.40625,-3.75 C 3.921875,-3.921875 2.953125,-4.3125 2.953125,-5.21875 c 0,-0.609375 0.53125,-1.59375 1.21875,-1.59375 0.25,0 0.515625,0.15625 0.515625,1.1875 0,0.625 -0.15625,1.3125 -0.28125,1.875 z m 0,0"
           id="path8553" />
      </symbol>
    </g>
    <g
       id="g3696">
      <symbol
         overflow="visible"
         id="symbol3581">
        <path
           style="stroke:none;"
           d=""
           id="path8343" />
      </symbol>
      <symbol
         overflow="visible"
         id="symbol7367">
        <path
           style="stroke:none;"
           d="M 2.859375 -6.8125 C 2.859375 -6.8125 2.859375 -6.921875 2.734375 -6.921875 C 2.5 -6.921875 1.78125 -6.84375 1.515625 -6.8125 C 1.4375 -6.8125 1.328125 -6.796875 1.328125 -6.625 C 1.328125 -6.5 1.421875 -6.5 1.5625 -6.5 C 2.046875 -6.5 2.0625 -6.4375 2.0625 -6.328125 L 2.03125 -6.125 L 0.59375 -0.390625 C 0.546875 -0.25 0.546875 -0.234375 0.546875 -0.171875 C 0.546875 0.0625 0.75 0.109375 0.84375 0.109375 C 1 0.109375 1.15625 -0.015625 1.203125 -0.15625 L 1.390625 -0.90625 L 1.609375 -1.796875 C 1.671875 -2.03125 1.734375 -2.25 1.78125 -2.46875 C 1.796875 -2.53125 1.890625 -2.859375 1.890625 -2.921875 C 1.921875 -3.015625 2.234375 -3.5625 2.578125 -3.84375 C 2.796875 -4 3.09375 -4.1875 3.53125 -4.1875 C 3.953125 -4.1875 4.0625 -3.84375 4.0625 -3.484375 C 4.0625 -2.953125 3.6875 -1.859375 3.453125 -1.25 C 3.375 -1.03125 3.3125 -0.90625 3.3125 -0.703125 C 3.3125 -0.234375 3.671875 0.109375 4.140625 0.109375 C 5.078125 0.109375 5.4375 -1.34375 5.4375 -1.421875 C 5.4375 -1.53125 5.359375 -1.53125 5.328125 -1.53125 C 5.21875 -1.53125 5.21875 -1.5 5.171875 -1.34375 C 5.03125 -0.8125 4.703125 -0.109375 4.15625 -0.109375 C 3.984375 -0.109375 3.921875 -0.203125 3.921875 -0.4375 C 3.921875 -0.6875 4 -0.921875 4.09375 -1.140625 C 4.25 -1.578125 4.703125 -2.765625 4.703125 -3.34375 C 4.703125 -3.984375 4.3125 -4.40625 3.5625 -4.40625 C 2.9375 -4.40625 2.453125 -4.09375 2.078125 -3.640625 Z M 2.859375 -6.8125 "
           id="path8108" />
      </symbol>
    </g>
    <g
       id="g7879">
      <symbol
         overflow="visible"
         id="symbol245">
        <path
           style="stroke:none;"
           d=""
           id="path5112" />
      </symbol>
      <symbol
         overflow="visible"
         id="symbol3503">
        <path
           style="stroke:none;"
           d="M 2.578125 -6.8125 C 2.578125 -6.8125 2.578125 -6.921875 2.4375 -6.921875 C 2.21875 -6.921875 1.484375 -6.84375 1.21875 -6.8125 C 1.140625 -6.8125 1.03125 -6.796875 1.03125 -6.609375 C 1.03125 -6.5 1.140625 -6.5 1.28125 -6.5 C 1.765625 -6.5 1.78125 -6.40625 1.78125 -6.328125 L 1.75 -6.125 L 0.484375 -1.140625 C 0.453125 -1.03125 0.4375 -0.96875 0.4375 -0.8125 C 0.4375 -0.234375 0.875 0.109375 1.34375 0.109375 C 1.671875 0.109375 1.921875 -0.09375 2.09375 -0.453125 C 2.265625 -0.828125 2.390625 -1.40625 2.390625 -1.421875 C 2.390625 -1.53125 2.296875 -1.53125 2.265625 -1.53125 C 2.171875 -1.53125 2.15625 -1.484375 2.140625 -1.34375 C 1.96875 -0.703125 1.78125 -0.109375 1.375 -0.109375 C 1.078125 -0.109375 1.078125 -0.421875 1.078125 -0.5625 C 1.078125 -0.8125 1.09375 -0.859375 1.140625 -1.046875 Z M 2.578125 -6.8125 "
           id="path1738" />
      </symbol>
    </g>
    <g
       id="g2871">
      <symbol
         overflow="visible"
         id="symbol3697">
        <path
           style="stroke:none;"
           d=""
           id="path1289" />
      </symbol>
      <symbol
         overflow="visible"
         id="symbol77">
        <path
           style="stroke:none;"
           d="M 7.609375 -6.046875 C 7.703125 -6.40625 7.71875 -6.5 8.4375 -6.5 C 8.703125 -6.5 8.78125 -6.5 8.78125 -6.703125 C 8.78125 -6.8125 8.671875 -6.8125 8.640625 -6.8125 C 8.359375 -6.8125 7.640625 -6.78125 7.359375 -6.78125 C 7.078125 -6.78125 6.375 -6.8125 6.078125 -6.8125 C 6 -6.8125 5.890625 -6.8125 5.890625 -6.609375 C 5.890625 -6.5 5.984375 -6.5 6.171875 -6.5 C 6.1875 -6.5 6.375 -6.5 6.546875 -6.484375 C 6.734375 -6.453125 6.8125 -6.453125 6.8125 -6.3125 C 6.8125 -6.28125 6.8125 -6.265625 6.78125 -6.125 L 6.1875 -3.703125 L 3.140625 -3.703125 L 3.734375 -6.046875 C 3.8125 -6.40625 3.84375 -6.5 4.5625 -6.5 C 4.828125 -6.5 4.90625 -6.5 4.90625 -6.703125 C 4.90625 -6.8125 4.796875 -6.8125 4.765625 -6.8125 C 4.484375 -6.8125 3.765625 -6.78125 3.484375 -6.78125 C 3.203125 -6.78125 2.5 -6.8125 2.203125 -6.8125 C 2.125 -6.8125 2.015625 -6.8125 2.015625 -6.609375 C 2.015625 -6.5 2.109375 -6.5 2.296875 -6.5 C 2.3125 -6.5 2.5 -6.5 2.671875 -6.484375 C 2.84375 -6.453125 2.9375 -6.453125 2.9375 -6.3125 C 2.9375 -6.28125 2.9375 -6.25 2.90625 -6.125 L 1.5625 -0.78125 C 1.46875 -0.390625 1.453125 -0.3125 0.65625 -0.3125 C 0.484375 -0.3125 0.390625 -0.3125 0.390625 -0.109375 C 0.390625 0 0.515625 0 0.53125 0 C 0.8125 0 1.515625 -0.03125 1.796875 -0.03125 C 2 -0.03125 2.21875 -0.015625 2.4375 -0.015625 C 2.65625 -0.015625 2.875 0 3.078125 0 C 3.15625 0 3.28125 0 3.28125 -0.203125 C 3.28125 -0.3125 3.1875 -0.3125 3 -0.3125 C 2.625 -0.3125 2.359375 -0.3125 2.359375 -0.484375 C 2.359375 -0.546875 2.375 -0.59375 2.375 -0.65625 L 3.0625 -3.390625 L 6.09375 -3.390625 C 5.6875 -1.734375 5.453125 -0.78125 5.40625 -0.640625 C 5.3125 -0.3125 5.125 -0.3125 4.5 -0.3125 C 4.359375 -0.3125 4.265625 -0.3125 4.265625 -0.109375 C 4.265625 0 4.390625 0 4.40625 0 C 4.6875 0 5.390625 -0.03125 5.671875 -0.03125 C 5.875 -0.03125 6.09375 -0.015625 6.3125 -0.015625 C 6.53125 -0.015625 6.75 0 6.953125 0 C 7.03125 0 7.15625 0 7.15625 -0.203125 C 7.15625 -0.3125 7.0625 -0.3125 6.875 -0.3125 C 6.515625 -0.3125 6.234375 -0.3125 6.234375 -0.484375 C 6.234375 -0.546875 6.25 -0.59375 6.265625 -0.65625 Z M 7.609375 -6.046875 "
           id="path7854" />
      </symbol>
    </g>
  </defs>
  <g
     inkscape:label="Layer 1"
     inkscape:groupmode="layer"
     id="layer1">
    <path
       style="fill:none;fill-rule:evenodd;stroke:#000000;stroke-width:0.264583;stroke-linecap:butt;stroke-linejoin:miter;stroke-miterlimit:4;stroke-dasharray:1.05833, 0.264583;stroke-dashoffset:0;stroke-opacity:1"
       d="M 89.632083,105.93544 172.89721,41.474859"
       id="path14099"
       sodipodi:nodetypes="cc"
       inkscape:export-filename="/home/mosa/Sources/Scuola/copernico_udine/2022-23/4C/Fisica/Onde/immagini/non_col.png"
       inkscape:export-xdpi="400"
       inkscape:export-ydpi="400" />
    <path
       style="fill:none;fill-rule:evenodd;stroke:#000000;stroke-width:0.265;stroke-linecap:butt;stroke-linejoin:miter;stroke-miterlimit:4;stroke-dasharray:none;stroke-opacity:1;marker-start:url(#Arrow2Lstart)"
       d="M 3.4949316,58.861932 H 198.17324"
       id="path857"
       inkscape:export-filename="/home/mosa/Sources/Scuola/copernico_udine/2022-23/4C/Fisica/Onde/immagini/non_col.png"
       inkscape:export-xdpi="400"
       inkscape:export-ydpi="400" />
    <text
       xml:space="preserve"
       style="font-style:italic;font-weight:bold;font-size:3.30729px;line-height:125%;font-family:Caladea;-inkscape-font-specification:'Caladea Bold Italic';letter-spacing:0px;word-spacing:0px;fill:none;stroke:#000000;stroke-width:0.264583px;stroke-linecap:butt;stroke-linejoin:miter;stroke-opacity:1"
       x="5.6150031"
       y="55.316628"
       id="text1499"
       inkscape:export-filename="/home/mosa/Sources/Scuola/copernico_udine/2022-23/4C/Fisica/Onde/immagini/non_col.png"
       inkscape:export-xdpi="400"
       inkscape:export-ydpi="400"><tspan
         sodipodi:role="line"
         id="tspan1497"
         style="font-style:normal;font-variant:normal;font-weight:normal;font-stretch:normal;font-family:garamond;-inkscape-font-specification:garamond;fill:#000000;fill-opacity:1;stroke:none;stroke-width:0.264583px;stroke-opacity:1"
         x="5.6150031"
         y="55.316628">Traiettoria dell'emettitore</tspan></text>
    <text
       xml:space="preserve"
       style="font-style:italic;font-weight:bold;font-size:3.30729px;line-height:125%;font-family:Caladea;-inkscape-font-specification:'Caladea Bold Italic';letter-spacing:0px;word-spacing:0px;fill:none;stroke:#000000;stroke-width:0.264583px;stroke-linecap:butt;stroke-linejoin:miter;stroke-opacity:1"
       x="94.159225"
       y="106.07213"
       id="text1499-3"
       inkscape:export-filename="/home/mosa/Sources/Scuola/copernico_udine/2022-23/4C/Fisica/Onde/immagini/non_col.png"
       inkscape:export-xdpi="400"
       inkscape:export-ydpi="400"><tspan
         sodipodi:role="line"
         id="tspan1497-6"
         style="font-style:normal;font-variant:normal;font-weight:normal;font-stretch:normal;font-family:garamond;-inkscape-font-specification:garamond;fill:#000000;fill-opacity:1;stroke:none;stroke-width:0.264583px;stroke-opacity:1"
         x="94.159225"
         y="106.07213">Osservatore</tspan></text>
    <text
       xml:space="preserve"
       style="font-style:italic;font-weight:bold;font-size:3.30729px;line-height:125%;font-family:Caladea;-inkscape-font-specification:'Caladea Bold Italic';letter-spacing:0px;word-spacing:0px;fill:none;stroke:#000000;stroke-width:0.264583px;stroke-linecap:butt;stroke-linejoin:miter;stroke-opacity:1"
       x="139.59293"
       y="53.17849"
       id="text1499-3-7"
       inkscape:export-filename="/home/mosa/Sources/Scuola/copernico_udine/2022-23/4C/Fisica/Onde/immagini/non_col.png"
       inkscape:export-xdpi="400"
       inkscape:export-ydpi="400"><tspan
         sodipodi:role="line"
         id="tspan1497-6-5"
         style="font-style:normal;font-variant:normal;font-weight:normal;font-stretch:normal;font-family:garamond;-inkscape-font-specification:garamond;fill:#000000;fill-opacity:1;stroke:none;stroke-width:0.264583px;stroke-opacity:1"
         x="139.59293"
         y="53.17849">Emettitore</tspan></text>
    <circle
       style="fill:#000000;fill-opacity:1;stroke:none;stroke-width:0.0649999;stroke-linecap:round;stroke-linejoin:round;stroke-opacity:1;paint-order:fill markers stroke"
       id="path8781"
       cx="89.777946"
       cy="105.26727"
       r="1.8333334"
       inkscape:export-filename="/home/mosa/Sources/Scuola/copernico_udine/2022-23/4C/Fisica/Onde/immagini/non_col.png"
       inkscape:export-xdpi="400"
       inkscape:export-ydpi="400" />
    <g
       inkscape:label=""
       transform="translate(104.6629,-26.229394)"
       id="g10814"
       inkscape:export-filename="/home/mosa/Sources/Scuola/copernico_udine/2022-23/4C/Fisica/Onde/immagini/non_col.png"
       inkscape:export-xdpi="400"
       inkscape:export-ydpi="400">
      <g
         id="g2199">
        <g
           style="fill:#000000;fill-opacity:1"
           id="g8811">
          <use
             xlink:href="#symbol2950"
             x="91.925003"
             y="81.962997"
             id="use3166"
             width="100%"
             height="100%" />
        </g>
      </g>
    </g>
    <path
       style="fill:none;fill-rule:evenodd;stroke:#000000;stroke-width:0.264583;stroke-linecap:butt;stroke-linejoin:miter;stroke-miterlimit:4;stroke-dasharray:0.793749, 0.793749;stroke-dashoffset:0;stroke-opacity:1"
       d="M 89.810953,10.769879 V 102.86636"
       id="path10880"
       sodipodi:nodetypes="cc"
       inkscape:export-filename="/home/mosa/Sources/Scuola/copernico_udine/2022-23/4C/Fisica/Onde/immagini/non_col.png"
       inkscape:export-xdpi="400"
       inkscape:export-ydpi="400" />
    <circle
       style="fill:#f81212;fill-opacity:1;stroke:none;stroke-width:0.264583;stroke-linecap:round;stroke-linejoin:round;stroke-miterlimit:4;stroke-dasharray:0.79375, 0.79375;stroke-dashoffset:0;stroke-opacity:1;paint-order:fill markers stroke"
       id="path11064"
       cx="150.24658"
       cy="58.615349"
       r="1.71875"
       inkscape:export-filename="/home/mosa/Sources/Scuola/copernico_udine/2022-23/4C/Fisica/Onde/immagini/non_col.png"
       inkscape:export-xdpi="400"
       inkscape:export-ydpi="400" />
    <path
       style="fill:none;fill-rule:evenodd;stroke:#eb7d0a;stroke-width:0.365;stroke-linecap:butt;stroke-linejoin:miter;stroke-miterlimit:4;stroke-dasharray:none;stroke-opacity:1;marker-end:url(#Arrow1Lend)"
       d="M 148.67777,58.858942 H 121.05726"
       id="path13283"
       sodipodi:nodetypes="cc"
       inkscape:export-filename="/home/mosa/Sources/Scuola/copernico_udine/2022-23/4C/Fisica/Onde/immagini/non_col.png"
       inkscape:export-xdpi="400"
       inkscape:export-ydpi="400" />
    <g
       inkscape:label=""
       transform="matrix(0.57001364,0,0,0.57001364,77.616559,9.6859123)"
       id="g14257"
       inkscape:export-filename="/home/mosa/Sources/Scuola/copernico_udine/2022-23/4C/Fisica/Onde/immagini/non_col.png"
       inkscape:export-xdpi="400"
       inkscape:export-ydpi="400">
      <g
         id="g6562">
        <g
           style="fill:#000000;fill-opacity:1"
           id="g5959">
          <use
             xlink:href="#symbol4982"
             x="91.538002"
             y="81.962997"
             id="use677"
             width="100%"
             height="100%" />
        </g>
        <g
           style="fill:#000000;fill-opacity:1"
           id="g4872">
          <use
             xlink:href="#symbol350"
             x="91.926544"
             y="81.962997"
             id="use2776"
             width="100%"
             height="100%" />
        </g>
        <g
           style="fill:#000000;fill-opacity:1"
           id="g5493">
          <use
             xlink:href="#symbol6039"
             x="96.753998"
             y="83.457001"
             id="use4212"
             width="100%"
             height="100%" />
        </g>
      </g>
    </g>
    <path
       style="fill:none;fill-rule:evenodd;stroke:#000000;stroke-width:0.264583;stroke-linecap:butt;stroke-linejoin:miter;stroke-miterlimit:4;stroke-dasharray:0.529166, 0.529166;stroke-dashoffset:0;stroke-opacity:1"
       d="m 100.11017,31.493715 47.79426,63.072407"
       id="path14331"
       inkscape:export-filename="/home/mosa/Sources/Scuola/copernico_udine/2022-23/4C/Fisica/Onde/immagini/non_col.png"
       inkscape:export-xdpi="400"
       inkscape:export-ydpi="400" />
    <path
       style="fill:none;fill-rule:evenodd;stroke:#008e21;stroke-width:0.264583px;stroke-linecap:butt;stroke-linejoin:miter;stroke-opacity:1;marker-end:url(#Arrow2Lend)"
       d="m 149.3857,59.676112 -18.41432,14.27694"
       id="path14446"
       inkscape:export-filename="/home/mosa/Sources/Scuola/copernico_udine/2022-23/4C/Fisica/Onde/immagini/non_col.png"
       inkscape:export-xdpi="400"
       inkscape:export-ydpi="400" />
    <g
       inkscape:label=""
       transform="matrix(0.50695844,0,0,0.50695844,94.135201,31.838141)"
       id="g15348"
       inkscape:export-filename="/home/mosa/Sources/Scuola/copernico_udine/2022-23/4C/Fisica/Onde/immagini/non_col.png"
       inkscape:export-xdpi="400"
       inkscape:export-ydpi="400">
      <g
         id="g3239">
        <g
           style="fill:#000000;fill-opacity:1"
           id="g9848">
          <use
             xlink:href="#symbol1158"
             x="91.538002"
             y="81.962997"
             id="use7485"
             width="100%"
             height="100%" />
        </g>
        <g
           style="fill:#000000;fill-opacity:1"
           id="g7593">
          <use
             xlink:href="#symbol3291"
             x="91.926544"
             y="81.962997"
             id="use7185"
             width="100%"
             height="100%" />
        </g>
        <g
           style="fill:#000000;fill-opacity:1"
           id="g3480">
          <use
             xlink:href="#symbol9431"
             x="97.112"
             y="78.348"
             id="use6790"
             width="100%"
             height="100%" />
        </g>
        <g
           style="fill:#000000;fill-opacity:1"
           id="g621">
          <use
             xlink:href="#symbol4243"
             x="96.753998"
             y="84.707001"
             id="use1162"
             width="100%"
             height="100%" />
        </g>
      </g>
    </g>
    <g
       inkscape:label=""
       transform="matrix(0.50695844,0,0,0.50695844,92.959004,22.611228)"
       id="g15557"
       inkscape:export-filename="/home/mosa/Sources/Scuola/copernico_udine/2022-23/4C/Fisica/Onde/immagini/non_col.png"
       inkscape:export-xdpi="400"
       inkscape:export-ydpi="400">
      <g
         id="g3287">
        <g
           style="fill:#000000;fill-opacity:1"
           id="g965">
          <use
             xlink:href="#symbol5701"
             x="91.925003"
             y="81.962997"
             id="use9944"
             width="100%"
             height="100%" />
        </g>
      </g>
    </g>
    <g
       inkscape:label=""
       transform="matrix(0.60486906,0,0,0.60486906,27.763838,34.117763)"
       id="g1186"
       inkscape:export-filename="/home/mosa/Sources/Scuola/copernico_udine/2022-23/4C/Fisica/Onde/immagini/non_col.png"
       inkscape:export-xdpi="400"
       inkscape:export-ydpi="400">
      <g
         id="g2279">
        <g
           style="fill:#000000;fill-opacity:1"
           id="g4503">
          <use
             xlink:href="#symbol7367"
             x="91.925003"
             y="81.962997"
             id="use6270"
             width="100%"
             height="100%" />
        </g>
      </g>
    </g>
    <g
       inkscape:label=""
       transform="matrix(0.60486906,0,0,0.60486906,130.51655,3.0672423)"
       id="g1413"
       inkscape:export-filename="/home/mosa/Sources/Scuola/copernico_udine/2022-23/4C/Fisica/Onde/immagini/non_col.png"
       inkscape:export-xdpi="400"
       inkscape:export-ydpi="400">
      <g
         id="g7891">
        <g
           style="fill:#000000;fill-opacity:1"
           id="g4392">
          <use
             xlink:href="#symbol3503"
             x="91.925003"
             y="81.962997"
             id="use2813"
             width="100%"
             height="100%" />
        </g>
      </g>
    </g>
    <g
       inkscape:label=""
       transform="matrix(0.54934823,0,0,0.54934823,33.419245,12.721763)"
       id="g1674">
      <g
         id="g2262">
        <g
           style="fill:#000000;fill-opacity:1"
           id="g9126">
          <use
             xlink:href="#symbol77"
             x="91.925003"
             y="81.962997"
             id="use8328"
             width="100%"
             height="100%" />
        </g>
      </g>
    </g>
  </g>
</svg>
